# xmcd
#
# Track frame offsets:
#	182
#	7572
#	19557
#	29102
#	41437
#	58920
#	69495
#	80862
#	94355
#	107755
#	122777
#	130835
#	140415
#	151405
#	163620
#	172695
#
# Disc length: 2569 seconds
#
# Revision: 0
# Processed by: cddbd v1.5.1PL0 Copyright (c) Steve Scherf et al.
# Submitted via: dBpowerAMP V4.0
#
DISCID=ce0a0710
DTITLE=Jean Bourbon - Tout Noir ... Tout Blanc
DYEAR=1995
DGENRE=Chanson
TTITLE0=O Combien
TTITLE1=Petit Jean
TTITLE2=Petit Jean
TTITLE3=C'est Une Histoite Trop Banale
TTITLE4=Accroche A Toi
TTITLE5=O Mere
TTITLE6=Les Jouets
TTITLE7=Jacques A Dit
TTITLE8=A Force
TTITLE9=Martin
TTITLE10=Je T'exile
TTITLE11=Je, Je M'en Fous
TTITLE12=Jamais Le Meme Endroit
TTITLE13=La P'titie Boulangere
TTITLE14=Le Havre
TTITLE15=J'en Ai Marre A Crever
EXTD=
EXTT0=
EXTT1=
EXTT2=
EXTT3=
EXTT4=
EXTT5=
EXTT6=
EXTT7=
EXTT8=
EXTT9=
EXTT10=
EXTT11=
EXTT12=
EXTT13=
EXTT14=
EXTT15=
PLAYORDER=
